<svg width="1000px" height="452px"
 viewBox="0.00 0.00 1502.72 680.18" xmlns="http://www.w3.org/2000/svg" xmlns:xlink="http://www.w3.org/1999/xlink">
<g id="graph0" class="graph" transform="scale(1.0 1.0) rotate(0) translate(4 676.18)">
<title>ContextMapGraph</title>
<polygon fill="white" stroke="transparent" points="-4,4 -4,-676.18 1498.72,-676.18 1498.72,4 -4,4"/>
<!-- ApplicationContext -->
<g id="node1" class="node">
<title>ApplicationContext</title>
<polygon fill="none" stroke="black" stroke-width="2" points="459.9,-316.2 463.51,-318.84 466.74,-321.5 469.58,-324.18 472.01,-326.87 474.02,-329.56 475.6,-332.23 476.73,-334.89 477.43,-337.51 477.67,-340.09 477.45,-342.62 476.78,-345.09 475.65,-347.5 474.06,-349.83 472.03,-352.09 469.54,-354.25 466.62,-356.33 463.27,-358.31 459.5,-360.19 455.33,-361.96 450.76,-363.62 445.82,-365.18 440.52,-366.62 434.88,-367.95 428.92,-369.16 422.67,-370.26 416.14,-371.25 409.36,-372.12 402.36,-372.87 395.15,-373.52 387.77,-374.06 380.24,-374.49 372.59,-374.81 364.84,-375.03 357.02,-375.15 349.16,-375.17 341.29,-375.1 333.42,-374.94 325.59,-374.69 317.82,-374.35 310.14,-373.93 302.56,-373.42 295.11,-372.84 287.82,-372.18 280.7,-371.45 273.77,-370.64 267.06,-369.77 260.57,-368.82 254.32,-367.81 248.34,-366.74 242.62,-365.6 237.2,-364.39 232.06,-363.12 227.23,-361.8 222.72,-360.41 218.52,-358.96 214.66,-357.45 211.12,-355.88 207.92,-354.25 205.05,-352.57 202.53,-350.83 200.34,-349.04 198.5,-347.19 197,-345.3 195.84,-343.35 195.01,-341.36 194.52,-339.32 194.35,-337.24 194.52,-335.12 195.01,-332.97 195.82,-330.79 196.94,-328.58 198.38,-326.35 200.11,-324.11 202.15,-321.85 204.48,-319.59 207.1,-317.34 210,-315.1 213.18,-312.87 216.62,-310.67 220.33,-308.5 224.29,-306.37 228.51,-304.29 232.96,-302.27 237.66,-300.31 242.58,-298.43 247.71,-296.63 253.06,-294.92 258.62,-293.31 264.36,-291.8 270.29,-290.41 276.39,-289.14 282.65,-288 289.07,-287 295.62,-286.13 302.3,-285.42 309.09,-284.85 315.98,-284.44 322.95,-284.19 329.99,-284.1 337.08,-284.17 344.2,-284.41 351.35,-284.82 358.49,-285.38 365.61,-286.12 372.69,-287.01 379.71,-288.06 386.65,-289.27 393.49,-290.63 400.2,-292.14 406.77,-293.78 413.18,-295.56 419.4,-297.47 425.41,-299.49 431.19,-301.62 436.72,-303.86 441.98,-306.18 446.94,-308.59 451.6,-311.07 455.92,-313.61 459.9,-316.2"/>
<text text-anchor="middle" x="330.12" y="-329.08" font-family="sans-serif" font-size="16.00">ApplicationContext</text>
</g>
<!-- ProductProcessContext -->
<g id="node2" class="node">
<title>ProductProcessContext</title>
<polygon fill="none" stroke="black" stroke-width="2" points="203.98,-147.65 214.39,-148.14 224.65,-148.74 234.73,-149.46 244.57,-150.29 254.15,-151.23 263.41,-152.27 272.34,-153.42 280.88,-154.67 289.02,-156.01 296.71,-157.45 303.94,-158.97 310.68,-160.58 316.9,-162.27 322.6,-164.03 327.74,-165.86 332.33,-167.76 336.35,-169.72 339.79,-171.73 342.65,-173.79 344.94,-175.9 346.64,-178.04 347.78,-180.22 348.35,-182.42 348.37,-184.64 347.84,-186.88 346.79,-189.13 345.23,-191.38 343.18,-193.63 340.66,-195.87 337.69,-198.1 334.29,-200.31 330.49,-202.49 326.31,-204.64 321.78,-206.76 316.92,-208.83 311.75,-210.86 306.31,-212.83 300.62,-214.75 294.69,-216.6 288.56,-218.39 282.25,-220.1 275.77,-221.73 269.16,-223.29 262.43,-224.76 255.59,-226.13 248.67,-227.42 241.68,-228.6 234.63,-229.69 227.55,-230.67 220.43,-231.55 213.3,-232.32 206.16,-232.97 199.02,-233.51 191.88,-233.94 184.77,-234.25 177.67,-234.44 170.6,-234.51 163.56,-234.47 156.56,-234.3 149.6,-234.01 142.68,-233.61 135.82,-233.09 129,-232.45 122.25,-231.69 115.57,-230.82 108.95,-229.84 102.42,-228.75 95.97,-227.55 89.62,-226.25 83.38,-224.85 77.26,-223.35 71.26,-221.76 65.41,-220.08 59.72,-218.32 54.2,-216.47 48.87,-214.56 43.75,-212.57 38.85,-210.53 34.2,-208.42 29.82,-206.27 25.72,-204.07 21.94,-201.83 18.48,-199.56 15.37,-197.26 12.63,-194.95 10.28,-192.62 8.35,-190.28 6.85,-187.95 5.8,-185.62 5.22,-183.31 5.13,-181.02 5.53,-178.75 6.45,-176.52 7.88,-174.34 9.86,-172.19 12.37,-170.1 15.42,-168.07 19.01,-166.11 23.15,-164.21 27.83,-162.39 33.04,-160.66 38.77,-159 45.01,-157.44 51.75,-155.97 58.96,-154.6 66.62,-153.34 74.72,-152.18 83.21,-151.12 92.08,-150.18 101.3,-149.36 110.82,-148.65 120.61,-148.06 130.64,-147.58 140.87,-147.23 151.25,-147 161.74,-146.89 172.31,-146.9 182.9,-147.03 193.47,-147.28 203.98,-147.65"/>
<text text-anchor="middle" x="174.12" y="-186.97" font-family="sans-serif" font-size="16.00">ProductProcessContext</text>
</g>
<!-- ApplicationContext&#45;&gt;ProductProcessContext -->
<g id="edge1" class="edge">
<title>ApplicationContext&#45;&gt;ProductProcessContext</title>
<path fill="none" stroke="black" stroke-width="2" d="M223.98,-306.17C204.73,-296.68 187.02,-283.71 175.12,-265.99 169.02,-256.89 166.86,-245.66 166.69,-234.7"/>
<text text-anchor="middle" x="250.62" y="-256.39" font-family="sans-serif" font-size="12.00"> &#160;&#160;&#160;&#160;&#160;&#160;&#160;&#160;&#160;&#160;&#160;&#160;&#160;&#160;&#160;&#160;&#160;&#160;&#160;&#160;&#160;&#160;&#160;&#160;&#160;&#160;&#160;&#160;&#160;&#160;&#160;&#160;&#160;&#160;&#160;&#160;&#160;&#160;&#160;</text>
<polygon fill="white" stroke="transparent" points="147.69,-224.7 147.69,-243.7 163.69,-243.7 163.69,-224.7 147.69,-224.7"/>
<polyline fill="none" stroke="black" points="163.69,-224.7 163.69,-243.7 "/>
<text text-anchor="start" x="150.69" y="-231.1" font-family="sans-serif" font-size="12.00">D</text>
<polygon fill="white" stroke="transparent" points="163.69,-224.7 163.69,-243.7 185.69,-243.7 185.69,-224.7 163.69,-224.7"/>
<polygon fill="none" stroke="black" points="163.69,-224.7 163.69,-243.7 185.69,-243.7 185.69,-224.7 163.69,-224.7"/>
<text text-anchor="start" x="166.69" y="-231.1" font-family="sans-serif" font-size="12.00">CF</text>
<polygon fill="white" stroke="transparent" points="199.98,-296.17 199.98,-315.17 215.98,-315.17 215.98,-296.17 199.98,-296.17"/>
<polyline fill="none" stroke="black" points="215.98,-296.17 215.98,-315.17 "/>
<text text-anchor="start" x="202.98" y="-302.57" font-family="sans-serif" font-size="12.00">U</text>
<polygon fill="white" stroke="transparent" points="215.98,-296.17 215.98,-315.17 248.98,-315.17 248.98,-296.17 215.98,-296.17"/>
<polygon fill="none" stroke="black" points="215.98,-296.17 215.98,-315.17 248.98,-315.17 248.98,-296.17 215.98,-296.17"/>
<text text-anchor="start" x="218.98" y="-302.57" font-family="sans-serif" font-size="12.00">OHS</text>
</g>
<!-- SalesMasterContext -->
<g id="node3" class="node">
<title>SalesMasterContext</title>
<polygon fill="none" stroke="black" stroke-width="2" points="532.09,-233.28 522.95,-232.55 513.97,-231.7 505.19,-230.74 496.65,-229.67 488.38,-228.5 480.41,-227.24 472.79,-225.87 465.52,-224.42 458.65,-222.88 452.2,-221.26 446.2,-219.55 440.65,-217.78 435.58,-215.94 431.01,-214.04 426.95,-212.08 423.4,-210.07 420.38,-208.01 417.89,-205.91 415.93,-203.78 414.5,-201.61 413.59,-199.42 413.21,-197.21 413.33,-194.99 413.96,-192.76 415.07,-190.53 416.65,-188.3 418.69,-186.08 421.17,-183.87 424.06,-181.69 427.35,-179.52 431.02,-177.39 435.03,-175.29 439.38,-173.23 444.03,-171.22 448.96,-169.26 454.15,-167.35 459.57,-165.5 465.2,-163.72 471.02,-162 477,-160.36 483.12,-158.79 489.36,-157.31 495.71,-155.91 502.14,-154.59 508.63,-153.38 515.17,-152.25 521.75,-151.23 528.34,-150.31 534.95,-149.49 541.54,-148.78 548.13,-148.18 554.68,-147.7 561.21,-147.32 567.69,-147.07 574.13,-146.93 580.51,-146.9 586.84,-147 593.1,-147.21 599.3,-147.55 605.43,-148 611.48,-148.57 617.45,-149.26 623.35,-150.06 629.15,-150.98 634.86,-152.01 640.48,-153.15 645.99,-154.4 651.4,-155.76 656.68,-157.21 661.85,-158.77 666.88,-160.41 671.77,-162.15 676.51,-163.97 681.08,-165.88 685.47,-167.85 689.67,-169.9 693.67,-172.01 697.45,-174.18 700.99,-176.4 704.28,-178.66 707.3,-180.97 710.03,-183.3 712.47,-185.66 714.58,-188.04 716.36,-190.42 717.78,-192.81 718.83,-195.2 719.5,-197.58 719.76,-199.93 719.62,-202.27 719.04,-204.57 718.03,-206.83 716.57,-209.04 714.66,-211.2 712.29,-213.3 709.45,-215.33 706.14,-217.3 702.37,-219.18 698.13,-220.98 693.44,-222.7 688.29,-224.31 682.7,-225.84 676.69,-227.25 670.26,-228.56 663.44,-229.76 656.24,-230.85 648.68,-231.82 640.8,-232.68 632.62,-233.41 624.17,-234.02 615.47,-234.5 606.56,-234.86 597.48,-235.1 588.26,-235.21 578.93,-235.19 569.54,-235.05 560.13,-234.79 550.72,-234.41 541.36,-233.91 532.09,-233.28"/>
<text text-anchor="middle" x="571.12" y="-186.97" font-family="sans-serif" font-size="16.00">SalesMasterContext</text>
</g>
<!-- ApplicationContext&#45;&gt;SalesMasterContext -->
<g id="edge2" class="edge">
<title>ApplicationContext&#45;&gt;SalesMasterContext</title>
<path fill="none" stroke="black" stroke-width="2" d="M333.28,-284C336.13,-272.64 340.99,-261.39 349.12,-252.99 368.93,-232.52 394.91,-218.7 422.09,-209.42"/>
<text text-anchor="middle" x="424.62" y="-256.39" font-family="sans-serif" font-size="12.00"> &#160;&#160;&#160;&#160;&#160;&#160;&#160;&#160;&#160;&#160;&#160;&#160;&#160;&#160;&#160;&#160;&#160;&#160;&#160;&#160;&#160;&#160;&#160;&#160;&#160;&#160;&#160;&#160;&#160;&#160;&#160;&#160;&#160;&#160;&#160;&#160;&#160;&#160;&#160;</text>
<polygon fill="white" stroke="transparent" points="403.09,-199.42 403.09,-218.42 419.09,-218.42 419.09,-199.42 403.09,-199.42"/>
<polyline fill="none" stroke="black" points="419.09,-199.42 419.09,-218.42 "/>
<text text-anchor="start" x="406.09" y="-205.82" font-family="sans-serif" font-size="12.00">D</text>
<polygon fill="white" stroke="transparent" points="419.09,-199.42 419.09,-218.42 441.09,-218.42 441.09,-199.42 419.09,-199.42"/>
<polygon fill="none" stroke="black" points="419.09,-199.42 419.09,-218.42 441.09,-218.42 441.09,-199.42 419.09,-199.42"/>
<text text-anchor="start" x="422.09" y="-205.82" font-family="sans-serif" font-size="12.00">CF</text>
<polygon fill="white" stroke="transparent" points="309.28,-274 309.28,-293 325.28,-293 325.28,-274 309.28,-274"/>
<polyline fill="none" stroke="black" points="325.28,-274 325.28,-293 "/>
<text text-anchor="start" x="312.28" y="-280.4" font-family="sans-serif" font-size="12.00">U</text>
<polygon fill="white" stroke="transparent" points="325.28,-274 325.28,-293 358.28,-293 358.28,-274 325.28,-274"/>
<polygon fill="none" stroke="black" points="325.28,-274 325.28,-293 358.28,-293 358.28,-274 325.28,-274"/>
<text text-anchor="start" x="328.28" y="-280.4" font-family="sans-serif" font-size="12.00">OHS</text>
</g>
<!-- RTBContext -->
<g id="node4" class="node">
<title>RTBContext</title>
<polygon fill="none" stroke="black" stroke-width="2" points="415.41,-76.68 411.41,-78.9 407.22,-81.04 402.87,-83.08 398.37,-85 393.73,-86.81 388.98,-88.5 384.12,-90.06 379.19,-91.48 374.18,-92.75 369.13,-93.88 364.04,-94.85 358.92,-95.67 353.81,-96.33 348.7,-96.82 343.62,-97.15 338.58,-97.32 333.59,-97.33 328.66,-97.17 323.8,-96.85 319.03,-96.37 314.35,-95.74 309.77,-94.96 305.31,-94.03 300.97,-92.96 296.76,-91.75 292.69,-90.42 288.76,-88.96 284.97,-87.39 281.34,-85.71 277.87,-83.93 274.56,-82.06 271.42,-80.1 268.45,-78.07 265.66,-75.98 263.04,-73.83 260.61,-71.63 258.35,-69.38 256.29,-67.11 254.42,-64.82 252.73,-62.5 251.25,-60.18 249.96,-57.86 248.87,-55.54 247.98,-53.24 247.3,-50.96 246.83,-48.7 246.57,-46.47 246.51,-44.28 246.68,-42.13 247.06,-40.02 247.65,-37.97 248.47,-35.96 249.51,-34.01 250.77,-32.12 252.25,-30.28 253.96,-28.51 255.89,-26.8 258.04,-25.16 260.42,-23.58 263.02,-22.08 265.84,-20.63 268.87,-19.26 272.11,-17.96 275.57,-16.73 279.22,-15.57 283.08,-14.48 287.12,-13.46 291.34,-12.51 295.74,-11.64 300.3,-10.84 305.02,-10.12 309.88,-9.47 314.87,-8.89 319.97,-8.4 325.18,-7.98 330.48,-7.65 335.84,-7.39 341.27,-7.22 346.73,-7.14 352.22,-7.15 357.71,-7.24 363.18,-7.43 368.62,-7.7 374.01,-8.08 379.33,-8.55 384.56,-9.12 389.67,-9.79 394.66,-10.57 399.51,-11.44 404.18,-12.42 408.68,-13.51 412.97,-14.7 417.05,-15.99 420.89,-17.39 424.49,-18.89 427.83,-20.49 430.89,-22.2 433.67,-24 436.15,-25.89 438.32,-27.88 440.18,-29.95 441.72,-32.1 442.94,-34.34 443.82,-36.64 444.38,-39.01 444.6,-41.43 444.49,-43.91 444.05,-46.42 443.28,-48.98 442.19,-51.56 440.78,-54.15 439.06,-56.76 437.05,-59.36 434.74,-61.95 432.14,-64.52 429.28,-67.05 426.17,-69.55 422.81,-71.99 419.22,-74.37 415.41,-76.68"/>
<text text-anchor="middle" x="340.12" y="-44.97" font-family="sans-serif" font-size="16.00">RTBContext</text>
</g>
<!-- SalesMasterContext&#45;&gt;RTBContext -->
<g id="edge3" class="edge">
<title>SalesMasterContext&#45;&gt;RTBContext</title>
<path fill="none" stroke="black" stroke-width="2" d="M477.32,-160.17C456.31,-151.55 434.76,-141.02 416.12,-128.55 401.28,-118.61 387.09,-105.36 375.07,-92.55"/>
<text text-anchor="middle" x="491.62" y="-118.95" font-family="sans-serif" font-size="12.00"> &#160;&#160;&#160;&#160;&#160;&#160;&#160;&#160;&#160;&#160;&#160;&#160;&#160;&#160;&#160;&#160;&#160;&#160;&#160;&#160;&#160;&#160;&#160;&#160;&#160;&#160;&#160;&#160;&#160;&#160;&#160;&#160;&#160;&#160;&#160;&#160;&#160;&#160;&#160;</text>
<polygon fill="white" stroke="transparent" points="356.07,-82.55 356.07,-101.55 372.07,-101.55 372.07,-82.55 356.07,-82.55"/>
<polyline fill="none" stroke="black" points="372.07,-82.55 372.07,-101.55 "/>
<text text-anchor="start" x="359.07" y="-88.95" font-family="sans-serif" font-size="12.00">D</text>
<polygon fill="white" stroke="transparent" points="372.07,-82.55 372.07,-101.55 394.07,-101.55 394.07,-82.55 372.07,-82.55"/>
<polygon fill="none" stroke="black" points="372.07,-82.55 372.07,-101.55 394.07,-101.55 394.07,-82.55 372.07,-82.55"/>
<text text-anchor="start" x="375.07" y="-88.95" font-family="sans-serif" font-size="12.00">CF</text>
<polygon fill="white" stroke="transparent" points="453.32,-150.17 453.32,-169.17 469.32,-169.17 469.32,-150.17 453.32,-150.17"/>
<polyline fill="none" stroke="black" points="469.32,-150.17 469.32,-169.17 "/>
<text text-anchor="start" x="456.32" y="-156.57" font-family="sans-serif" font-size="12.00">U</text>
<polygon fill="white" stroke="transparent" points="469.32,-150.17 469.32,-169.17 502.32,-169.17 502.32,-150.17 469.32,-150.17"/>
<polygon fill="none" stroke="black" points="469.32,-150.17 469.32,-169.17 502.32,-169.17 502.32,-150.17 469.32,-150.17"/>
<text text-anchor="start" x="472.32" y="-156.57" font-family="sans-serif" font-size="12.00">OHS</text>
</g>
<!-- CapContext -->
<g id="node5" class="node">
<title>CapContext</title>
<polygon fill="none" stroke="black" stroke-width="2" points="607.49,-8.16 613.51,-9.17 619.4,-10.29 625.12,-11.51 630.66,-12.83 635.99,-14.24 641.09,-15.74 645.94,-17.32 650.52,-18.98 654.82,-20.72 658.81,-22.52 662.48,-24.38 665.83,-26.3 668.83,-28.27 671.48,-30.29 673.78,-32.35 675.71,-34.44 677.28,-36.56 678.47,-38.71 679.3,-40.87 679.77,-43.04 679.87,-45.23 679.62,-47.41 679.02,-49.6 678.07,-51.77 676.8,-53.93 675.2,-56.08 673.3,-58.2 671.11,-60.29 668.64,-62.35 665.91,-64.38 662.92,-66.36 659.71,-68.3 656.29,-70.19 652.67,-72.02 648.87,-73.8 644.91,-75.52 640.8,-77.16 636.57,-78.74 632.23,-80.25 627.79,-81.68 623.28,-83.03 618.7,-84.29 614.08,-85.47 609.42,-86.56 604.73,-87.55 600.04,-88.45 595.34,-89.25 590.66,-89.95 585.99,-90.54 581.36,-91.03 576.76,-91.42 572.2,-91.69 567.7,-91.85 563.24,-91.9 558.85,-91.83 554.52,-91.65 550.25,-91.36 546.06,-90.95 541.94,-90.43 537.89,-89.79 533.93,-89.04 530.04,-88.17 526.24,-87.2 522.52,-86.11 518.89,-84.91 515.35,-83.61 511.91,-82.21 508.56,-80.7 505.32,-79.1 502.18,-77.41 499.16,-75.63 496.25,-73.77 493.47,-71.82 490.81,-69.81 488.3,-67.72 485.93,-65.57 483.71,-63.37 481.66,-61.12 479.78,-58.82 478.08,-56.49 476.57,-54.13 475.26,-51.74 474.16,-49.34 473.29,-46.94 472.64,-44.53 472.24,-42.13 472.08,-39.75 472.18,-37.39 472.55,-35.06 473.2,-32.77 474.12,-30.53 475.33,-28.33 476.84,-26.2 478.64,-24.14 480.74,-22.14 483.14,-20.23 485.84,-18.4 488.83,-16.67 492.12,-15.03 495.7,-13.49 499.57,-12.06 503.71,-10.74 508.11,-9.53 512.78,-8.44 517.68,-7.48 522.81,-6.63 528.16,-5.92 533.69,-5.33 539.41,-4.87 545.28,-4.53 551.29,-4.33 557.4,-4.26 563.61,-4.31 569.88,-4.49 576.2,-4.8 582.53,-5.23 588.85,-5.79 595.13,-6.46 601.36,-7.25 607.49,-8.16"/>
<text text-anchor="middle" x="571.12" y="-44.97" font-family="sans-serif" font-size="16.00">CapContext</text>
</g>
<!-- SalesMasterContext&#45;&gt;CapContext -->
<g id="edge4" class="edge">
<title>SalesMasterContext&#45;&gt;CapContext</title>
<path fill="none" stroke="black" stroke-width="2" d="M571.12,-146.62C571.12,-129.27 571.12,-109.32 571.12,-92.06"/>
<text text-anchor="middle" x="605.62" y="-118.95" font-family="sans-serif" font-size="12.00">Partnership</text>
</g>
<!-- HitmanContext -->
<g id="node6" class="node">
<title>HitmanContext</title>
<polygon fill="none" stroke="black" stroke-width="2" points="741.27,-17.87 746.6,-15.79 752.13,-13.82 757.83,-11.95 763.69,-10.19 769.69,-8.56 775.79,-7.06 781.98,-5.69 788.25,-4.46 794.56,-3.38 800.89,-2.45 807.23,-1.67 813.56,-1.05 819.85,-0.6 826.1,-0.3 832.28,-0.17 838.37,-0.2 844.37,-0.39 850.25,-0.74 856.01,-1.25 861.63,-1.91 867.1,-2.73 872.41,-3.69 877.54,-4.8 882.5,-6.04 887.27,-7.42 891.85,-8.91 896.23,-10.53 900.41,-12.25 904.37,-14.08 908.12,-16 911.65,-18 914.97,-20.08 918.05,-22.23 920.92,-24.44 923.55,-26.7 925.96,-29 928.14,-31.33 930.08,-33.69 931.79,-36.06 933.27,-38.45 934.51,-40.83 935.51,-43.21 936.27,-45.57 936.8,-47.91 937.08,-50.23 937.12,-52.51 936.91,-54.75 936.46,-56.95 935.76,-59.09 934.81,-61.19 933.61,-63.23 932.16,-65.21 930.45,-67.12 928.5,-68.97 926.28,-70.75 923.82,-72.46 921.1,-74.09 918.13,-75.65 914.9,-77.14 911.43,-78.55 907.71,-79.88 903.74,-81.14 899.54,-82.31 895.11,-83.41 890.44,-84.43 885.56,-85.37 880.47,-86.24 875.17,-87.02 869.69,-87.72 864.02,-88.34 858.19,-88.88 852.2,-89.34 846.08,-89.72 839.83,-90.02 833.48,-90.23 827.04,-90.36 820.54,-90.4 813.99,-90.36 807.41,-90.23 800.82,-90.01 794.25,-89.7 787.72,-89.3 781.26,-88.81 774.87,-88.22 768.6,-87.54 762.46,-86.76 756.47,-85.89 750.66,-84.92 745.05,-83.85 739.67,-82.69 734.52,-81.42 729.65,-80.06 725.06,-78.61 720.77,-77.05 716.8,-75.41 713.17,-73.67 709.9,-71.85 706.99,-69.93 704.45,-67.94 702.31,-65.86 700.56,-63.71 699.22,-61.49 698.28,-59.21 697.76,-56.87 697.65,-54.48 697.95,-52.04 698.67,-49.56 699.79,-47.05 701.31,-44.53 703.23,-41.99 705.53,-39.44 708.2,-36.9 711.23,-34.37 714.62,-31.87 718.33,-29.4 722.36,-26.97 726.69,-24.59 731.3,-22.28 736.16,-20.03 741.27,-17.87"/>
<text text-anchor="middle" x="825.12" y="-44.97" font-family="sans-serif" font-size="16.00">HitmanContext</text>
</g>
<!-- SalesMasterContext&#45;&gt;HitmanContext -->
<g id="edge5" class="edge">
<title>SalesMasterContext&#45;&gt;HitmanContext</title>
<path fill="none" stroke="black" stroke-width="2" d="M638.52,-152.62C675.71,-132.13 721.7,-106.77 758.73,-86.37"/>
<text text-anchor="middle" x="740.62" y="-118.95" font-family="sans-serif" font-size="12.00">Partnership</text>
</g>
<!-- ClientProcessContext -->
<g id="node7" class="node">
<title>ClientProcessContext</title>
<polygon fill="none" stroke="black" stroke-width="2" points="597.02,-485.66 595.68,-488.51 593.93,-491.32 591.78,-494.09 589.24,-496.8 586.31,-499.44 583,-502 579.33,-504.47 575.3,-506.84 570.92,-509.1 566.22,-511.24 561.19,-513.26 555.85,-515.15 550.23,-516.91 544.32,-518.52 538.16,-519.98 531.76,-521.3 525.13,-522.46 518.29,-523.47 511.27,-524.32 504.07,-525.01 496.73,-525.55 489.25,-525.94 481.66,-526.17 473.98,-526.25 466.23,-526.19 458.43,-525.98 450.6,-525.64 442.77,-525.16 434.94,-524.55 427.15,-523.82 419.41,-522.97 411.75,-522.01 404.18,-520.95 396.72,-519.79 389.4,-518.54 382.23,-517.21 375.24,-515.79 368.44,-514.31 361.85,-512.76 355.48,-511.16 349.36,-509.5 343.5,-507.79 337.92,-506.05 332.63,-504.27 327.65,-502.45 322.99,-500.61 318.66,-498.75 314.68,-496.87 311.05,-494.98 307.79,-493.07 304.91,-491.16 302.41,-489.24 300.31,-487.31 298.6,-485.39 297.3,-483.46 296.41,-481.54 295.93,-479.61 295.86,-477.7 296.2,-475.79 296.96,-473.88 298.13,-471.98 299.71,-470.1 301.7,-468.22 304.09,-466.36 306.88,-464.51 310.05,-462.67 313.61,-460.85 317.53,-459.06 321.82,-457.28 326.46,-455.54 331.43,-453.82 336.73,-452.13 342.34,-450.48 348.24,-448.87 354.42,-447.3 360.86,-445.78 367.54,-444.32 374.45,-442.91 381.56,-441.58 388.86,-440.31 396.33,-439.12 403.94,-438.01 411.67,-436.98 419.5,-436.06 427.41,-435.23 435.38,-434.51 443.38,-433.9 451.39,-433.41 459.39,-433.05 467.36,-432.81 475.27,-432.7 483.1,-432.73 490.83,-432.9 498.44,-433.22 505.9,-433.68 513.2,-434.29 520.31,-435.05 527.21,-435.96 533.89,-437.02 540.33,-438.23 546.51,-439.59 552.4,-441.09 558,-442.73 563.29,-444.51 568.25,-446.43 572.88,-448.47 577.15,-450.63 581.06,-452.91 584.6,-455.29 587.76,-457.77 590.52,-460.34 592.89,-462.98 594.85,-465.69 596.4,-468.47 597.54,-471.28 598.27,-474.13 598.58,-477.01 598.48,-479.9 597.95,-482.78 597.02,-485.66"/>
<text text-anchor="middle" x="447.12" y="-475.24" font-family="sans-serif" font-size="16.00">ClientProcessContext</text>
</g>
<!-- ClientProcessContext&#45;&gt;ApplicationContext -->
<g id="edge7" class="edge">
<title>ClientProcessContext&#45;&gt;ApplicationContext</title>
<path fill="none" stroke="black" stroke-width="2" d="M413.59,-436.73C397.93,-417.43 379.32,-394.5 363.65,-375.19"/>
<text text-anchor="middle" x="427.62" y="-403.16" font-family="sans-serif" font-size="12.00">Partnership</text>
</g>
<!-- ClientProcessContext&#45;&gt;SalesMasterContext -->
<g id="edge6" class="edge">
<title>ClientProcessContext&#45;&gt;SalesMasterContext</title>
<path fill="none" stroke="black" stroke-width="2" d="M465.94,-432.83C488.85,-377.79 524.92,-291.23 528.12,-283.99 535.26,-267.83 543.38,-250.22 550.63,-234.76"/>
<text text-anchor="middle" x="562.62" y="-329.78" font-family="sans-serif" font-size="12.00">Partnership</text>
</g>
<!-- MeeteorContext -->
<g id="node8" class="node">
<title>MeeteorContext</title>
<polygon fill="none" stroke="black" stroke-width="2" points="1464.59,-308.69 1469.1,-311.07 1473.3,-313.5 1477.16,-315.97 1480.68,-318.47 1483.84,-321 1486.63,-323.54 1489.02,-326.09 1491.01,-328.63 1492.6,-331.16 1493.77,-333.66 1494.51,-336.14 1494.83,-338.58 1494.71,-340.97 1494.17,-343.31 1493.19,-345.59 1491.79,-347.81 1489.98,-349.96 1487.74,-352.04 1485.11,-354.03 1482.08,-355.95 1478.66,-357.77 1474.89,-359.51 1470.76,-361.16 1466.29,-362.71 1461.51,-364.16 1456.44,-365.52 1451.08,-366.79 1445.48,-367.95 1439.64,-369.02 1433.59,-369.99 1427.36,-370.86 1420.96,-371.64 1414.43,-372.32 1407.79,-372.91 1401.05,-373.4 1394.26,-373.8 1387.42,-374.11 1380.56,-374.33 1373.71,-374.46 1366.89,-374.5 1360.12,-374.46 1353.42,-374.33 1346.81,-374.12 1340.31,-373.82 1333.93,-373.44 1327.7,-372.98 1321.63,-372.44 1315.73,-371.82 1310.02,-371.12 1304.5,-370.34 1299.2,-369.47 1294.12,-368.53 1289.27,-367.51 1284.65,-366.41 1280.27,-365.24 1276.15,-363.98 1272.28,-362.65 1268.66,-361.24 1265.3,-359.75 1262.21,-358.19 1259.38,-356.56 1256.81,-354.85 1254.51,-353.07 1252.47,-351.22 1250.69,-349.31 1249.18,-347.33 1247.93,-345.29 1246.95,-343.2 1246.22,-341.05 1245.75,-338.85 1245.53,-336.61 1245.57,-334.33 1245.86,-332.01 1246.41,-329.67 1247.2,-327.31 1248.25,-324.93 1249.54,-322.55 1251.07,-320.16 1252.85,-317.79 1254.88,-315.43 1257.14,-313.1 1259.65,-310.8 1262.39,-308.54 1265.38,-306.33 1268.59,-304.18 1272.04,-302.1 1275.72,-300.1 1279.62,-298.18 1283.75,-296.35 1288.09,-294.63 1292.65,-293.01 1297.42,-291.52 1302.39,-290.14 1307.55,-288.9 1312.9,-287.8 1318.42,-286.83 1324.11,-286.02 1329.96,-285.35 1335.96,-284.84 1342.08,-284.49 1348.33,-284.3 1354.67,-284.27 1361.1,-284.4 1367.6,-284.7 1374.16,-285.16 1380.75,-285.77 1387.35,-286.55 1393.94,-287.48 1400.51,-288.56 1407.03,-289.79 1413.48,-291.16 1419.83,-292.66 1426.07,-294.29 1432.17,-296.05 1438.11,-297.92 1443.86,-299.9 1449.41,-301.97 1454.73,-304.13 1459.8,-306.38 1464.59,-308.69"/>
<text text-anchor="middle" x="1362.12" y="-329.08" font-family="sans-serif" font-size="16.00">MeeteorContext</text>
</g>
<!-- MeeteorContext&#45;&gt;SalesMasterContext -->
<g id="edge8" class="edge">
<title>MeeteorContext&#45;&gt;SalesMasterContext</title>
<path fill="none" stroke="black" stroke-width="2" d="M1275.99,-299.79C1258.04,-293.91 1239.1,-288.28 1221.12,-283.99 1051.22,-243.46 851.8,-218.4 719.09,-204.82"/>
<text text-anchor="middle" x="1209.62" y="-256.39" font-family="sans-serif" font-size="12.00"> &#160;&#160;&#160;&#160;&#160;&#160;&#160;&#160;&#160;&#160;&#160;&#160;&#160;&#160;&#160;&#160;&#160;&#160;&#160;&#160;&#160;&#160;&#160;&#160;&#160;&#160;&#160;&#160;&#160;&#160;&#160;&#160;&#160;&#160;&#160;&#160;&#160;&#160;&#160;</text>
<polygon fill="white" stroke="transparent" points="696.09,-194.82 696.09,-213.82 712.09,-213.82 712.09,-194.82 696.09,-194.82"/>
<polyline fill="none" stroke="black" points="712.09,-194.82 712.09,-213.82 "/>
<text text-anchor="start" x="699.09" y="-201.22" font-family="sans-serif" font-size="12.00">D</text>
<polygon fill="white" stroke="transparent" points="712.09,-194.82 712.09,-213.82 742.09,-213.82 742.09,-194.82 712.09,-194.82"/>
<polygon fill="none" stroke="black" points="712.09,-194.82 712.09,-213.82 742.09,-213.82 742.09,-194.82 712.09,-194.82"/>
<text text-anchor="start" x="715.09" y="-201.22" font-family="sans-serif" font-size="12.00">ACL</text>
<polygon fill="white" stroke="transparent" points="1268.99,-290.79 1268.99,-307.79 1282.99,-307.79 1282.99,-290.79 1268.99,-290.79"/>
<text text-anchor="start" x="1270.99" y="-296.19" font-family="sans-serif" font-size="12.00">U</text>
</g>
<!-- OtherEventPublisherContext -->
<g id="node9" class="node">
<title>OtherEventPublisherContext</title>
<polygon fill="none" stroke="black" stroke-width="2" points="1149.61,-304.95 1157.76,-307.15 1165.45,-309.41 1172.65,-311.72 1179.31,-314.08 1185.43,-316.48 1190.96,-318.91 1195.88,-321.35 1200.17,-323.81 1203.82,-326.27 1206.8,-328.72 1209.1,-331.16 1210.72,-333.57 1211.64,-335.96 1211.86,-338.31 1211.38,-340.62 1210.21,-342.89 1208.35,-345.09 1205.8,-347.24 1202.59,-349.33 1198.72,-351.35 1194.21,-353.3 1189.09,-355.17 1183.37,-356.96 1177.09,-358.67 1170.26,-360.3 1162.93,-361.85 1155.13,-363.31 1146.87,-364.68 1138.21,-365.96 1129.18,-367.15 1119.81,-368.26 1110.15,-369.27 1100.23,-370.19 1090.08,-371.03 1079.76,-371.77 1069.29,-372.42 1058.71,-372.99 1048.07,-373.46 1037.4,-373.85 1026.73,-374.15 1016.09,-374.36 1005.53,-374.49 995.07,-374.52 984.75,-374.47 974.58,-374.33 964.6,-374.11 954.84,-373.8 945.31,-373.4 936.03,-372.91 927.04,-372.34 918.33,-371.68 909.93,-370.94 901.86,-370.1 894.12,-369.18 886.72,-368.17 879.68,-367.08 872.99,-365.9 866.68,-364.63 860.73,-363.27 855.17,-361.84 849.98,-360.31 845.17,-358.71 840.74,-357.02 836.7,-355.26 833.04,-353.42 829.76,-351.51 826.87,-349.52 824.36,-347.47 822.23,-345.36 820.48,-343.19 819.11,-340.97 818.13,-338.69 817.52,-336.38 817.3,-334.03 817.46,-331.64 818,-329.24 818.93,-326.82 820.24,-324.38 821.94,-321.95 824.03,-319.53 826.51,-317.12 829.38,-314.73 832.65,-312.38 836.3,-310.07 840.36,-307.81 844.8,-305.61 849.65,-303.48 854.88,-301.42 860.51,-299.45 866.53,-297.57 872.93,-295.79 879.72,-294.12 886.87,-292.56 894.39,-291.13 902.26,-289.83 910.48,-288.66 919.03,-287.64 927.89,-286.75 937.05,-286.02 946.48,-285.44 956.18,-285.02 966.11,-284.75 976.25,-284.64 986.58,-284.69 997.06,-284.9 1007.67,-285.27 1018.37,-285.79 1029.13,-286.47 1039.92,-287.3 1050.7,-288.28 1061.44,-289.4 1072.09,-290.66 1082.61,-292.06 1092.98,-293.57 1103.15,-295.21 1113.07,-296.97 1122.72,-298.82 1132.05,-300.78 1141.02,-302.82 1149.61,-304.95"/>
<text text-anchor="middle" x="1000.12" y="-329.08" font-family="sans-serif" font-size="16.00">OtherEventPublisherContext</text>
</g>
<!-- ScoringContext -->
<g id="node10" class="node">
<title>ScoringContext</title>
<polygon fill="none" stroke="black" stroke-width="2" points="658.84,-659.12 652.68,-660.89 646.37,-662.56 639.92,-664.11 633.35,-665.54 626.7,-666.84 619.98,-668.01 613.22,-669.04 606.45,-669.93 599.69,-670.67 592.96,-671.26 586.28,-671.7 579.67,-671.98 573.16,-672.11 566.75,-672.08 560.48,-671.89 554.35,-671.54 548.39,-671.04 542.6,-670.39 536.99,-669.59 531.59,-668.64 526.39,-667.55 521.41,-666.32 516.66,-664.97 512.14,-663.48 507.85,-661.88 503.81,-660.16 500.01,-658.34 496.46,-656.42 493.16,-654.41 490.11,-652.32 487.31,-650.16 484.77,-647.93 482.47,-645.65 480.43,-643.32 478.63,-640.95 477.08,-638.56 475.77,-636.14 474.71,-633.71 473.88,-631.28 473.3,-628.85 472.96,-626.43 472.85,-624.03 472.98,-621.65 473.34,-619.31 473.93,-617.01 474.76,-614.76 475.81,-612.56 477.1,-610.41 478.62,-608.32 480.37,-606.3 482.36,-604.35 484.57,-602.47 487.01,-600.67 489.68,-598.95 492.58,-597.3 495.71,-595.74 499.07,-594.27 502.66,-592.88 506.47,-591.58 510.5,-590.37 514.75,-589.24 519.22,-588.21 523.9,-587.26 528.78,-586.41 533.86,-585.64 539.14,-584.97 544.59,-584.38 550.22,-583.88 556.01,-583.47 561.96,-583.15 568.03,-582.92 574.24,-582.77 580.55,-582.72 586.95,-582.75 593.42,-582.87 599.96,-583.07 606.52,-583.37 613.1,-583.75 619.68,-584.22 626.23,-584.78 632.73,-585.42 639.15,-586.16 645.47,-586.98 651.68,-587.89 657.74,-588.89 663.63,-589.97 669.33,-591.15 674.81,-592.4 680.05,-593.75 685.04,-595.18 689.73,-596.69 694.13,-598.29 698.2,-599.97 701.93,-601.72 705.3,-603.55 708.3,-605.46 710.9,-607.43 713.11,-609.47 714.9,-611.57 716.28,-613.73 717.22,-615.95 717.73,-618.21 717.81,-620.51 717.45,-622.85 716.65,-625.22 715.42,-627.61 713.76,-630.02 711.68,-632.44 709.19,-634.86 706.3,-637.27 703.02,-639.66 699.36,-642.03 695.35,-644.37 690.99,-646.67 686.31,-648.92 681.33,-651.11 676.07,-653.23 670.56,-655.28 664.8,-657.25 658.84,-659.12"/>
<text text-anchor="middle" x="586.12" y="-620.45" font-family="sans-serif" font-size="16.00">ScoringContext</text>
</g>
<!-- ScoringContext&#45;&gt;ClientProcessContext -->
<g id="edge9" class="edge">
<title>ScoringContext&#45;&gt;ClientProcessContext</title>
<path fill="none" stroke="black" stroke-width="2" d="M547.77,-583.74C530.41,-565.85 509.79,-544.6 491.74,-526.01"/>
<text text-anchor="middle" x="596.62" y="-548.72" font-family="sans-serif" font-size="12.00"> &#160;&#160;&#160;&#160;&#160;&#160;&#160;&#160;&#160;&#160;&#160;&#160;&#160;&#160;&#160;&#160;&#160;&#160;&#160;&#160;&#160;&#160;&#160;&#160;&#160;&#160;&#160;&#160;&#160;&#160;&#160;&#160;&#160;&#160;&#160;&#160;&#160;&#160;&#160;</text>
<polygon fill="white" stroke="transparent" points="468.74,-516.01 468.74,-535.01 484.74,-535.01 484.74,-516.01 468.74,-516.01"/>
<polyline fill="none" stroke="black" points="484.74,-516.01 484.74,-535.01 "/>
<text text-anchor="start" x="471.74" y="-522.41" font-family="sans-serif" font-size="12.00">D</text>
<polygon fill="white" stroke="transparent" points="484.74,-516.01 484.74,-535.01 514.74,-535.01 514.74,-516.01 484.74,-516.01"/>
<polygon fill="none" stroke="black" points="484.74,-516.01 484.74,-535.01 514.74,-535.01 514.74,-516.01 484.74,-516.01"/>
<text text-anchor="start" x="487.74" y="-522.41" font-family="sans-serif" font-size="12.00">ACL</text>
<polygon fill="white" stroke="transparent" points="523.77,-573.74 523.77,-592.74 539.77,-592.74 539.77,-573.74 523.77,-573.74"/>
<polyline fill="none" stroke="black" points="539.77,-573.74 539.77,-592.74 "/>
<text text-anchor="start" x="526.77" y="-580.14" font-family="sans-serif" font-size="12.00">U</text>
<polygon fill="white" stroke="transparent" points="539.77,-573.74 539.77,-592.74 572.77,-592.74 572.77,-573.74 539.77,-573.74"/>
<polygon fill="none" stroke="black" points="539.77,-573.74 539.77,-592.74 572.77,-592.74 572.77,-573.74 539.77,-573.74"/>
<text text-anchor="start" x="542.77" y="-580.14" font-family="sans-serif" font-size="12.00">OHS</text>
</g>
<!-- ToosContext -->
<g id="node11" class="node">
<title>ToosContext</title>
<polygon fill="none" stroke="black" stroke-width="2" points="659.77,-446.22 664.63,-444.3 669.65,-442.48 674.79,-440.77 680.05,-439.18 685.41,-437.72 690.83,-436.38 696.32,-435.19 701.84,-434.13 707.37,-433.22 712.9,-432.46 718.42,-431.86 723.89,-431.41 729.32,-431.12 734.67,-430.99 739.95,-431.01 745.12,-431.2 750.19,-431.55 755.14,-432.05 759.95,-432.7 764.62,-433.51 769.14,-434.46 773.49,-435.55 777.68,-436.78 781.7,-438.14 785.54,-439.63 789.19,-441.23 792.66,-442.95 795.93,-444.76 799.01,-446.68 801.89,-448.68 804.57,-450.76 807.06,-452.91 809.34,-455.12 811.42,-457.38 813.31,-459.69 814.99,-462.03 816.46,-464.41 817.74,-466.79 818.82,-469.19 819.69,-471.6 820.37,-473.99 820.84,-476.38 821.11,-478.74 821.18,-481.08 821.05,-483.38 820.72,-485.64 820.19,-487.86 819.46,-490.03 818.52,-492.14 817.38,-494.2 816.03,-496.19 814.49,-498.11 812.73,-499.96 810.77,-501.75 808.61,-503.45 806.24,-505.08 803.67,-506.64 800.89,-508.11 797.92,-509.5 794.74,-510.81 791.37,-512.03 787.8,-513.17 784.04,-514.23 780.09,-515.21 775.97,-516.1 771.67,-516.91 767.2,-517.63 762.57,-518.27 757.8,-518.82 752.88,-519.29 747.84,-519.68 742.68,-519.98 737.41,-520.2 732.06,-520.33 726.62,-520.38 721.13,-520.34 715.6,-520.21 710.03,-520 704.46,-519.7 698.9,-519.31 693.37,-518.83 687.88,-518.27 682.46,-517.61 677.13,-516.86 671.9,-516.03 666.81,-515.1 661.86,-514.08 657.07,-512.96 652.48,-511.76 648.08,-510.46 643.91,-509.08 639.99,-507.6 636.32,-506.04 632.92,-504.39 629.81,-502.65 627,-500.84 624.51,-498.94 622.34,-496.97 620.5,-494.92 619.01,-492.81 617.86,-490.63 617.08,-488.4 616.64,-486.11 616.57,-483.77 616.86,-481.4 617.51,-478.98 618.51,-476.55 619.86,-474.09 621.56,-471.62 623.59,-469.15 625.95,-466.69 628.63,-464.23 631.61,-461.81 634.88,-459.41 638.43,-457.06 642.25,-454.75 646.3,-452.51 650.59,-450.33 655.09,-448.23 659.77,-446.22"/>
<text text-anchor="middle" x="726.12" y="-475.24" font-family="sans-serif" font-size="16.00">ToosContext</text>
</g>
<!-- ScoringContext&#45;&gt;ToosContext -->
<g id="edge10" class="edge">
<title>ScoringContext&#45;&gt;ToosContext</title>
<path fill="none" stroke="black" stroke-width="2" d="M644,-586.46C655.31,-577.95 666.59,-568.4 676.12,-558.32 686.87,-546.95 696.65,-532.96 704.65,-519.96"/>
<text text-anchor="middle" x="761.62" y="-548.72" font-family="sans-serif" font-size="12.00"> &#160;&#160;&#160;&#160;&#160;&#160;&#160;&#160;&#160;&#160;&#160;&#160;&#160;&#160;&#160;&#160;&#160;&#160;&#160;&#160;&#160;&#160;&#160;&#160;&#160;&#160;&#160;&#160;&#160;&#160;&#160;&#160;&#160;&#160;&#160;&#160;&#160;&#160;&#160;</text>
<polygon fill="white" stroke="transparent" points="681.65,-509.96 681.65,-528.96 697.65,-528.96 697.65,-509.96 681.65,-509.96"/>
<polyline fill="none" stroke="black" points="697.65,-509.96 697.65,-528.96 "/>
<text text-anchor="start" x="684.65" y="-516.36" font-family="sans-serif" font-size="12.00">D</text>
<polygon fill="white" stroke="transparent" points="697.65,-509.96 697.65,-528.96 727.65,-528.96 727.65,-509.96 697.65,-509.96"/>
<polygon fill="none" stroke="black" points="697.65,-509.96 697.65,-528.96 727.65,-528.96 727.65,-509.96 697.65,-509.96"/>
<text text-anchor="start" x="700.65" y="-516.36" font-family="sans-serif" font-size="12.00">ACL</text>
<polygon fill="white" stroke="transparent" points="620,-576.46 620,-595.46 636,-595.46 636,-576.46 620,-576.46"/>
<polyline fill="none" stroke="black" points="636,-576.46 636,-595.46 "/>
<text text-anchor="start" x="623" y="-582.86" font-family="sans-serif" font-size="12.00">U</text>
<polygon fill="white" stroke="transparent" points="636,-576.46 636,-595.46 669,-595.46 669,-576.46 636,-576.46"/>
<polygon fill="none" stroke="black" points="636,-576.46 636,-595.46 669,-595.46 669,-576.46 636,-576.46"/>
<text text-anchor="start" x="639" y="-582.86" font-family="sans-serif" font-size="12.00">OHS</text>
</g>
<!-- ToosContext&#45;&gt;SalesMasterContext -->
<g id="edge12" class="edge">
<title>ToosContext&#45;&gt;SalesMasterContext</title>
<path fill="none" stroke="black" stroke-width="2" d="M677.81,-439.68C660.05,-423.45 641.12,-403.31 628.12,-381.76 624.24,-375.33 599.17,-289.39 583.59,-235.32"/>
<text text-anchor="middle" x="703.62" y="-329.78" font-family="sans-serif" font-size="12.00"> &#160;&#160;&#160;&#160;&#160;&#160;&#160;&#160;&#160;&#160;&#160;&#160;&#160;&#160;&#160;&#160;&#160;&#160;&#160;&#160;&#160;&#160;&#160;&#160;&#160;&#160;&#160;&#160;&#160;&#160;&#160;&#160;&#160;&#160;&#160;&#160;&#160;&#160;&#160;</text>
<polygon fill="white" stroke="transparent" points="564.59,-225.32 564.59,-244.32 580.59,-244.32 580.59,-225.32 564.59,-225.32"/>
<polyline fill="none" stroke="black" points="580.59,-225.32 580.59,-244.32 "/>
<text text-anchor="start" x="567.59" y="-231.72" font-family="sans-serif" font-size="12.00">D</text>
<polygon fill="white" stroke="transparent" points="580.59,-225.32 580.59,-244.32 602.59,-244.32 602.59,-225.32 580.59,-225.32"/>
<polygon fill="none" stroke="black" points="580.59,-225.32 580.59,-244.32 602.59,-244.32 602.59,-225.32 580.59,-225.32"/>
<text text-anchor="start" x="583.59" y="-231.72" font-family="sans-serif" font-size="12.00">CF</text>
<polygon fill="white" stroke="transparent" points="653.81,-429.68 653.81,-448.68 669.81,-448.68 669.81,-429.68 653.81,-429.68"/>
<polyline fill="none" stroke="black" points="669.81,-429.68 669.81,-448.68 "/>
<text text-anchor="start" x="656.81" y="-436.08" font-family="sans-serif" font-size="12.00">U</text>
<polygon fill="white" stroke="transparent" points="669.81,-429.68 669.81,-448.68 702.81,-448.68 702.81,-429.68 669.81,-429.68"/>
<polygon fill="none" stroke="black" points="669.81,-429.68 669.81,-448.68 702.81,-448.68 702.81,-429.68 669.81,-429.68"/>
<text text-anchor="start" x="672.81" y="-436.08" font-family="sans-serif" font-size="12.00">OHS</text>
</g>
<!-- ToosContext&#45;&gt;OtherEventPublisherContext -->
<g id="edge11" class="edge">
<title>ToosContext&#45;&gt;OtherEventPublisherContext</title>
<path fill="none" stroke="black" stroke-width="2" d="M792.8,-442.96C833.35,-421.62 885.18,-394.35 926.87,-372.41"/>
<text text-anchor="middle" x="947.62" y="-403.16" font-family="sans-serif" font-size="12.00"> &#160;&#160;&#160;&#160;&#160;&#160;&#160;&#160;&#160;&#160;&#160;&#160;&#160;&#160;&#160;&#160;&#160;&#160;&#160;&#160;&#160;&#160;&#160;&#160;&#160;&#160;&#160;&#160;&#160;&#160;&#160;&#160;&#160;&#160;&#160;&#160;&#160;&#160;&#160;</text>
<polygon fill="white" stroke="transparent" points="919.87,-363.41 919.87,-380.41 933.87,-380.41 933.87,-363.41 919.87,-363.41"/>
<text text-anchor="start" x="921.87" y="-368.81" font-family="sans-serif" font-size="12.00">D</text>
<polygon fill="white" stroke="transparent" points="757.8,-432.96 757.8,-451.96 773.8,-451.96 773.8,-432.96 757.8,-432.96"/>
<polyline fill="none" stroke="black" points="773.8,-432.96 773.8,-451.96 "/>
<text text-anchor="start" x="760.8" y="-439.36" font-family="sans-serif" font-size="12.00">U</text>
<polygon fill="white" stroke="transparent" points="773.8,-432.96 773.8,-451.96 828.8,-451.96 828.8,-432.96 773.8,-432.96"/>
<polygon fill="none" stroke="black" points="773.8,-432.96 773.8,-451.96 828.8,-451.96 828.8,-432.96 773.8,-432.96"/>
<text text-anchor="start" x="776.8" y="-439.36" font-family="sans-serif" font-size="12.00">OHS, PL</text>
</g>
</g>
</svg>
